<?xml version="1.0" standalone="no"?><!DOCTYPE svg PUBLIC "-//W3C//DTD SVG 1.1//EN" "http://www.w3.org/Graphics/SVG/1.1/DTD/svg11.dtd"><svg t="1597739864650" class="icon" viewBox="0 0 1024 1024" version="1.1" xmlns="http://www.w3.org/2000/svg" p-id="5605" xmlns:xlink="http://www.w3.org/1999/xlink" width="200" height="200"><defs><style type="text/css"></style></defs><path d="M786.2 137.6H237.8c-65.9 0-119.6 53.7-119.6 119.6v423.3c0 65.9 53.7 119.6 119.6 119.6h16.4v86.4l31.9-1.7c49.9-2.6 101-31.1 152-84.7h348.2c65.9 0 119.6-53.7 119.6-119.6V257.2c-0.1-66-53.7-119.6-119.7-119.6z m59.1 542.9c0 32.5-26.5 59-59 59h-375l-9 10c-30.3 33.6-60 56.4-87.5 67.3v-77.4h-77c-32.5 0-59-26.5-59-59V257.2c0-32.5 26.5-59 59-59h548.5c32.5 0 59 26.5 59 59v423.3z" p-id="5606" fill="#ffffff"></path><path d="M325.2 430.8c-28.4 0-51.5 23.1-51.5 51.5s23.1 51.5 51.5 51.5 51.5-23.1 51.5-51.5-23.1-51.5-51.5-51.5zM512 430.8c-28.4 0-51.5 23.1-51.5 51.5s23.1 51.5 51.5 51.5 51.5-23.1 51.5-51.5-23.1-51.5-51.5-51.5zM698.8 430.8c-28.4 0-51.5 23.1-51.5 51.5s23.1 51.5 51.5 51.5 51.5-23.1 51.5-51.5-23-51.5-51.5-51.5z" p-id="5607" fill="#ffffff"></path></svg>